<svg viewBox="0 0 27 28" fill="none" xmlns="http://www.w3.org/2000/svg">
<path d="M13.4964 9.55374C11.0481 9.55374 9.05012 11.5518 9.05012 14.0001C9.05012 16.4484 11.0481 18.4464 13.4964 18.4464C15.9446 18.4464 17.9426 16.4484 17.9426 14.0001C17.9426 11.5518 15.9446 9.55374 13.4964 9.55374ZM26.8318 14.0001C26.8318 12.1588 26.8485 10.3343 26.7451 8.49636C26.6417 6.36159 26.1547 4.46697 24.5937 2.90592C23.0293 1.34153 21.1381 0.857869 19.0033 0.754465C17.1621 0.651062 15.3376 0.66774 13.4997 0.66774C11.6585 0.66774 9.83397 0.651062 7.99609 0.754465C5.86136 0.857869 3.96678 1.34486 2.40576 2.90592C0.841394 4.47031 0.357743 6.36159 0.254342 8.49636C0.15094 10.3376 0.167618 12.1622 0.167618 14.0001C0.167618 15.838 0.15094 17.6659 0.254342 19.5038C0.357743 21.6386 0.84473 23.5332 2.40576 25.0942C3.97012 26.6586 5.86136 27.1423 7.99609 27.2457C9.8373 27.3491 11.6618 27.3324 13.4997 27.3324C15.3409 27.3324 17.1655 27.3491 19.0033 27.2457C21.1381 27.1423 23.0326 26.6553 24.5937 25.0942C26.158 23.5299 26.6417 21.6386 26.7451 19.5038C26.8518 17.6659 26.8318 15.8413 26.8318 14.0001ZM13.4964 20.8414C9.71055 20.8414 6.65521 17.786 6.65521 14.0001C6.65521 10.2142 9.71055 7.15879 13.4964 7.15879C17.2822 7.15879 20.3375 10.2142 20.3375 14.0001C20.3375 17.786 17.2822 20.8414 13.4964 20.8414ZM20.6177 8.47635C19.7338 8.47635 19.02 7.76253 19.02 6.8786C19.02 5.99467 19.7338 5.28086 20.6177 5.28086C21.5016 5.28086 22.2154 5.99467 22.2154 6.8786C22.2157 7.0885 22.1746 7.29638 22.0944 7.49035C22.0142 7.68431 21.8965 7.86055 21.7481 8.00897C21.5996 8.15738 21.4234 8.27506 21.2295 8.35526C21.0355 8.43547 20.8276 8.47661 20.6177 8.47635Z" fill="currentColor"/>
</svg>
