<svg viewBox="0 0 35 28" fill="none" xmlns="http://www.w3.org/2000/svg">
<path d="M34.1667 3.8299C32.9409 4.36443 31.6241 4.7256 30.2397 4.88885C31.6681 4.04775 32.7368 2.72395 33.2462 1.16447C31.9042 1.94891 30.4355 2.50108 28.9038 2.79696C27.8738 1.7147 26.5095 0.997355 25.0228 0.756307C23.536 0.515259 22.01 0.763989 20.6816 1.46388C19.3533 2.16377 18.2969 3.27567 17.6764 4.62694C17.056 5.97821 16.9063 7.49325 17.2505 8.93685C14.5312 8.80248 11.871 8.10695 9.44259 6.89538C7.01415 5.6838 4.87172 3.98327 3.15435 1.90414C2.56713 2.90097 2.22948 4.05672 2.22948 5.28758C2.22883 6.39565 2.50611 7.48674 3.03672 8.46405C3.56734 9.44136 4.33489 10.2747 5.27126 10.8901C4.18532 10.856 3.12333 10.5673 2.1737 10.0478V10.1345C2.17359 11.6886 2.71985 13.1949 3.71981 14.3977C4.71977 15.6006 6.11182 16.426 7.65976 16.7338C6.65237 17.0021 5.59619 17.0416 4.57101 16.8494C5.00774 18.1866 5.85847 19.3559 7.00409 20.1937C8.14971 21.0315 9.53286 21.4957 10.9599 21.5215C8.53741 23.3929 5.54562 24.4081 2.46584 24.4036C1.92028 24.4037 1.37519 24.3724 0.833374 24.3097C3.95953 26.2877 7.59861 27.3375 11.3152 27.3334C23.8963 27.3334 30.7741 17.0791 30.7741 8.18561C30.7741 7.89668 30.7667 7.60485 30.7535 7.31591C32.0913 6.36383 33.2461 5.18486 34.1638 3.83424L34.1667 3.8299Z" fill="currentColor"/>
</svg>
